<?xml version="1.0" standalone="no"?>
<!DOCTYPE svg PUBLIC "-//W3C//DTD SVG 20010904//EN"
 "http://www.w3.org/TR/2001/REC-SVG-20010904/DTD/svg10.dtd">
<svg version="1.0" xmlns="http://www.w3.org/2000/svg"
 width="118.000000pt" height="162.000000pt" viewBox="0 0 118.000000 162.000000"
 preserveAspectRatio="xMidYMid meet">

<g transform="translate(0.000000,162.000000) scale(0.100000,-0.100000)"
fill="#000000" stroke="none">
<path d="M0 810 l0 -810 590 0 590 0 0 810 0 810 -590 0 -590 0 0 -810z m725
661 c31 -32 63 -68 71 -80 14 -19 24 -21 115 -21 157 0 168 -11 169 -167 0
-100 -2 -112 -19 -118 -10 -3 -24 -3 -32 1 -8 3 -61 59 -118 125 l-104 119
-181 0 -181 0 -112 -112 c-113 -113 -113 -113 -113 -161 0 -48 1 -49 110 -161
90 -92 115 -112 134 -109 29 6 56 -20 56 -56 0 -34 -17 -51 -52 -51 -30 0 -65
40 -53 60 4 7 -42 61 -108 129 -94 96 -117 125 -123 156 l-7 39 -33 -37 c-19
-20 -34 -43 -34 -52 0 -8 88 -106 196 -217 145 -151 203 -205 226 -210 54 -11
66 -66 22 -95 -24 -15 -29 -15 -53 -2 -19 11 -26 23 -27 47 0 37 -8 46 -226
268 -87 89 -162 172 -167 185 -12 35 4 70 54 119 l45 44 0 84 c0 139 32 172
168 172 l80 0 80 80 c74 74 83 80 121 80 36 0 46 -6 96 -59z m-57 -297 c14 -9
22 -26 22 -43 0 -24 35 -65 195 -229 230 -237 229 -234 145 -325 l-50 -55 0
-77 c0 -138 -37 -175 -176 -175 l-78 0 -82 -80 c-113 -110 -135 -109 -240 12
l-58 68 -102 0 c-96 0 -104 2 -134 26 l-31 26 3 117 c3 116 3 116 28 119 21 2
44 -19 134 -123 l110 -125 180 0 181 0 112 112 c105 104 113 115 113 151 0 55
-10 70 -127 188 -87 89 -109 105 -129 101 -50 -9 -84 56 -48 92 32 32 94 7 94
-38 0 -13 41 -61 110 -131 83 -83 115 -123 128 -159 l19 -47 31 36 c18 19 32
43 32 52 0 9 -69 86 -153 172 -84 86 -171 175 -192 199 -27 30 -46 42 -66 42
-52 0 -77 53 -42 92 20 22 42 23 71 2z"/>
<path d="M605 1490 c-11 -4 -45 -33 -75 -64 l-54 -56 148 0 149 0 -49 53 c-40
44 -86 80 -97 76 -1 0 -11 -4 -22 -9z"/>
<path d="M240 1310 c-16 -16 -20 -33 -20 -87 l0 -68 85 85 c47 47 85 86 85 87
0 2 -29 3 -65 3 -52 0 -69 -4 -85 -20z"/>
<path d="M869 1313 c6 -10 49 -58 95 -108 l85 -90 1 91 c0 117 -6 124 -114
124 -70 0 -76 -1 -67 -17z"/>
<path d="M110 432 c0 -116 7 -124 115 -120 l77 3 -89 102 c-48 56 -91 102 -95
102 -5 1 -8 -39 -8 -87z"/>
<path d="M850 395 l-85 -85 68 0 c91 0 107 16 107 105 0 36 -1 65 -3 65 -1 0
-40 -38 -87 -85z"/>
<path d="M430 223 c91 -95 103 -96 185 -13 l59 60 -144 0 -144 0 44 -47z"/>
</g>
</svg>
